#N canvas 373 96 1303 950 10;
#X text 75 305 minimum rest duration [s]:;
#X floatatom 327 240 5 1 99 0 - - -;
#X floatatom 329 277 5 5 120 0 - - -;
#X floatatom 331 306 5 0 30 0 - - -;
#X text 63 208 ———— Independent Activity Budget ————
;
#X obj 213 364 r iab_frac;
#X floatatom 213 417 5 0 0 0 - - -;
#X msg 294 240 50;
#X text 105 244 fraction of time [%]:;
#X text 70 273 reference time frame [min]:;
#X msg 296 274 14;
#X floatatom 289 418 5 0 0 0 - - -;
#X obj 289 364 r iab_ref;
#X msg 295 302 5;
#X obj 374 241 s iab_frac;
#X obj 377 274 s iab_ref;
#X obj 380 307 s iab_rest;
#X obj 618 326 metro 1000;
#X obj 618 358 bng 15 250 50 0 empty empty empty 17 7 0 10 -262144
-1 -1;
#X obj 618 297 tgl 15 0 empty empty empty 17 7 0 10 -262144 -1 -1 1
1;
#X msg 618 268 1;
#X obj 289 391 * 60;
#X obj 213 391 / 100;
#X obj 255 477 *;
#X obj 213 444 t b f;
#X floatatom 255 508 5 0 0 0 - - -;
#X text 66 506 available budget per ref [s]:;
#X obj 760 145 counter;
#X obj 289 443 s iab_ref_s;
#X obj 815 89 r iab_ref_s;
#X floatatom 815 120 5 0 0 0 - - -;
#X obj 741 91 r iab_step;
#X obj 618 383 s iab_step;
#X floatatom 776 185 5 0 0 0 - - -;
#X obj 916 89 vsl 15 128 0.01 1 0 0 empty empty empty 0 -9 0 10 -262144
-1 -1 6225 1;
#X obj 799 210 /;
#X floatatom 798 252 5 0 0 0 - - -;
#X obj 841 384 counter;
#X floatatom 897 356 5 0 0 0 - - -;
#X obj 823 327 r iab_step;
#X floatatom 858 421 5 0 0 0 - - -;
#X obj 881 446 /;
#X floatatom 881 472 5 0 0 0 - - -;
#X obj 897 325 r iab_rest;
#X obj 922 384 bng 15 250 50 0 empty empty empty 17 7 0 10 -262144
-1 -1;
#X obj 845 197 bng 15 250 50 0 empty empty empty 17 7 0 10 -262144
-1 -1;
#X obj 953 659 accum;
#X obj 297 508 s iab_bud;
#X obj 1015 490 tgl 15 0 empty empty empty 17 7 0 10 -262144 -1 -1
0 1;
#X obj 1016 392 r iab_act;
#X obj 953 553 *;
#X obj 1000 518 f;
#X obj 923 408 t 0 b;
#X obj 1016 423 select 1;
#X msg 1018 453 1;
#X obj 998 659 r iab_bud;
#X obj 951 764 /;
#X obj 1083 653 vsl 15 128 0 1 0 0 empty empty empty 0 -9 0 10 -262144
-1 -1 3629 1;
#X floatatom 951 799 5 0 0 0 - - -;
#X obj 950 713 -;
#X floatatom 952 739 5 0 0 0 - - -;
#X obj 846 229 s iab_new_ref;
#X obj 845 658 r iab_new_ref;
#X msg 845 686 0;
#X obj 953 623 t b f;
#X obj 946 685 t b f;
#X text 937 133 elapsed;
#X text 1104 672 budget left;
#X text 606 212 ———— clock ————;
#X text 767 56 ———— reference frame ————;
#X text 826 297 ———— rest frame ————;
#X text 969 595 ———— remaining budget ————;
#N canvas 573 96 1223 959 sound 0;
#X obj 315 722 dac~;
#X obj 315 638 *~;
#X obj 425 630 env~;
#X floatatom 422 684 5 0 0 0 - - -;
#X obj 154 605 hsl 128 15 0 1 0 0 empty empty empty -2 -8 0 10 -262144
-1 -1 2200 1;
#X obj 423 657 - 100;
#X obj 422 749 tgl 15 0 empty empty empty 17 7 0 10 -262144 -1 -1 0
1;
#X text 479 713 below -60 dBFS is "silent";
#X obj 422 713 > -60;
#X obj 472 753 status;
#X obj 472 787 bng 15 250 50 0 empty empty empty 17 7 0 10 -262144
-1 -1;
#X obj 127 726 tgl 15 0 empty empty empty 17 7 0 10 -262144 -1 -1 0
1;
#X obj 127 748 == 0;
#X obj 316 673 *~;
#X obj 407 784 s iab_act;
#X obj 505 786 bng 15 250 50 0 empty empty empty 17 7 0 10 -262144
-1 -1;
#X floatatom 290 90 5 1 99 0 - - -;
#X floatatom 291 124 5 5 120 0 - - -;
#X obj 194 17 bng 15 250 50 0 empty empty empty 17 7 0 10 -262144 -1
-1;
#X msg 258 90 5;
#X msg 254 122 30;
#X obj 337 91 s snd_min_phrase;
#X obj 340 123 s snd_max_phrase;
#X text 19 92 minimum phrase duration [s]:;
#X text 17 124 maximum phrase duration [s]:;
#X obj 600 168 r iab_bud_rem;
#X floatatom 600 196 5 0 0 0 - - -;
#X obj 555 118 random;
#X obj 555 149 +;
#X obj 567 24 r snd_min_phrase;
#X obj 675 25 r snd_max_phrase;
#X obj 648 98 -;
#X obj 648 123 + 1;
#X obj 583 52 t b f;
#X obj 949 71 bng 15 250 50 0 empty empty empty 17 7 0 10 -262144 -1
-1;
#X floatatom 555 196 5 0 0 0 - - -;
#X obj 611 417 status;
#X obj 611 452 bng 15 250 50 0 empty empty empty 17 7 0 10 -262144
-1 -1;
#X obj 644 450 bng 15 250 50 0 empty empty empty 17 7 0 10 -262144
-1 -1;
#X floatatom 288 152 5 1 99 0 - - -;
#X floatatom 290 183 5 5 120 0 - - -;
#X msg 254 153 1;
#X msg 255 182 6;
#X text 17 157 minimum offset duration [s]:;
#X text 16 189 maximum offset duration [s]:;
#X obj 338 150 s snd_min_off;
#X obj 339 181 s snd_max_off;
#X obj 315 598 *~;
#X msg 77 604 0.173228;
#X obj 151 628 prepend set;
#X obj 776 731 random;
#X obj 775 765 +;
#X obj 851 690 -;
#X obj 851 715 + 1;
#X obj 831 662 t b f;
#X obj 815 634 r snd_min_off;
#X obj 873 659 r snd_max_off;
#X floatatom 769 839 5 0 0 0 - - -;
#X obj 233 559 line~, f 6;
#X obj 648 490 s iab_begin;
#X obj 574 493 s iab_end;
#X msg 227 513 1 1000;
#X obj 281 515 delay;
#X msg 329 513 0 1000;
#X obj 391 512 delay 1000;
#X obj 299 460 - 1000;
#X obj 299 433 * 1000;
#X obj 363 467 t b b;
#X obj 525 254 f;
#X obj 536 221 t f f;
#X obj 495 625 mtof;
#X obj 495 595 + 30;
#X obj 496 541 random 100;
#X floatatom 497 567 5 0 0 0 - - -;
#X floatatom 496 656 6 0 0 0 - - -;
#X obj 368 585 bandpass~ 100 1;
#X obj 364 553 pink~;
#X obj 949 43 r snd_attempt;
#X obj 1084 44 tgl 15 0 empty empty empty 17 7 0 10 -262144 -1 -1 1
1;
#X msg 1052 44 1;
#X obj 1052 77 prepend set;
#X text 1106 42 keep running;
#X obj 949 100 spigot;
#X obj 763 596 bng 15 250 50 0 empty empty empty 17 7 0 10 -262144
-1 -1;
#X obj 728 871 delay;
#X obj 764 623 t b b;
#X obj 728 904 s snd_attempt;
#X obj 769 868 * 1000;
#X obj 762 562 r snd_off;
#X obj 405 542 s snd_off;
#X text 150 580 volume;
#X floatatom 289 217 5 1 400 0 - - -;
#X floatatom 290 250 5 5 400 0 - - -;
#X msg 252 217 20;
#X msg 250 250 75;
#X text 13 58 ———— Sound Timing ————;
#X obj 338 217 s snd_min_pause;
#X obj 336 253 s snd_max_pause;
#X msg 201 250 set \$1;
#X msg 207 90 set \$1;
#X msg 202 123 set \$1;
#X msg 202 153 set \$1;
#X text 18 222 minimum pause duration [s]:;
#X text 17 254 maximum pause duration [s]:;
#X msg 203 182 set \$1;
#X msg 200 217 set \$1;
#X floatatom 301 285 5 5 400 0 - - -;
#X msg 253 287 8;
#X msg 204 287 set \$1;
#X obj 341 284 s snd_pause_prob;
#X text 49 289 pause probability [%]:;
#X obj 953 547 r snd_pause;
#X obj 989 723 random;
#X obj 990 764 +;
#X obj 1044 694 -;
#X obj 1044 719 + 1;
#X obj 1024 666 t b f;
#X obj 955 574 bng 15 250 50 0 empty empty empty 17 7 0 10 -262144
-1 -1;
#X obj 1008 638 r snd_min_pause;
#X obj 1066 663 r snd_max_pause;
#X obj 966 137 r snd_pause_prob;
#X obj 949 178 random 100;
#X obj 949 209 <;
#X obj 949 237 select 0 1;
#X obj 948 270 bng 15 250 50 0 empty empty empty 17 7 0 10 -262144
-1 -1;
#X obj 975 270 bng 15 250 50 0 empty empty empty 17 7 0 10 -262144
-1 -1;
#X obj 1000 269 s snd_pause;
#X obj 491 86 r snd_play;
#X obj 874 270 s snd_play;
#X obj 959 323 r snd_pause_prob;
#X obj 942 364 random 100;
#X obj 942 395 <;
#X obj 942 423 select 0 1;
#X obj 941 456 bng 15 250 50 0 empty empty empty 17 7 0 10 -262144
-1 -1;
#X obj 972 456 bng 15 250 50 0 empty empty empty 17 7 0 10 -262144
-1 -1;
#X obj 555 256 >;
#X obj 545 283 select 0 1;
#X obj 835 322 r snd_off_or_pause;
#X obj 554 312 s snd_off_or_pause;
#X obj 612 382 r snd_status;
#X obj 1000 454 s snd_pause;
#X obj 830 502 s snd_off;
#X obj 77 578 r init;
#X obj 130 16 r init;
#X text 698 379 0 = silent \, 1 = active;
#X text 809 839 seconds;
#X obj 872 440 t b b;
#X msg 898 501 \; snd_status 0;
#X obj 954 599 t b b b;
#X msg 1016 601 \; snd_status 0;
#X msg 325 398 \; snd_status 1;
#X obj 127 699 r snd_mute;
#X obj 213 396 bng 15 250 50 0 empty empty empty 17 7 0 10 -262144
-1 -1;
#X obj 235 397 t b b f b b b;
#X text 813 68 click here if loop is interrupted by editing, f 19
;
#X connect 1 0 2 0;
#X connect 1 0 13 0;
#X connect 2 0 5 0;
#X connect 3 0 8 0;
#X connect 4 0 1 1;
#X connect 4 0 49 0;
#X connect 5 0 3 0;
#X connect 6 0 14 0;
#X connect 8 0 6 0;
#X connect 8 0 9 0;
#X connect 9 0 10 0;
#X connect 9 1 15 0;
#X connect 11 0 12 0;
#X connect 12 0 13 1;
#X connect 13 0 0 0;
#X connect 13 0 0 1;
#X connect 16 0 21 0;
#X connect 16 0 99 0;
#X connect 17 0 22 0;
#X connect 17 0 100 0;
#X connect 18 0 19 0;
#X connect 18 0 20 0;
#X connect 18 0 41 0;
#X connect 18 0 42 0;
#X connect 18 0 93 0;
#X connect 18 0 94 0;
#X connect 18 0 107 0;
#X connect 19 0 16 0;
#X connect 20 0 17 0;
#X connect 25 0 26 0;
#X connect 26 0 135 1;
#X connect 27 0 28 0;
#X connect 28 0 35 0;
#X connect 29 0 28 1;
#X connect 29 0 33 0;
#X connect 30 0 31 0;
#X connect 31 0 32 0;
#X connect 32 0 27 1;
#X connect 33 0 31 0;
#X connect 33 1 31 1;
#X connect 34 0 82 0;
#X connect 35 0 69 0;
#X connect 36 0 37 0;
#X connect 36 1 38 0;
#X connect 37 0 60 0;
#X connect 38 0 59 0;
#X connect 39 0 45 0;
#X connect 39 0 101 0;
#X connect 40 0 46 0;
#X connect 40 0 104 0;
#X connect 41 0 39 0;
#X connect 42 0 40 0;
#X connect 47 0 1 0;
#X connect 49 0 48 0;
#X connect 50 0 51 0;
#X connect 51 0 57 0;
#X connect 52 0 53 0;
#X connect 53 0 50 1;
#X connect 54 0 52 0;
#X connect 54 1 52 1;
#X connect 55 0 51 1;
#X connect 55 0 54 0;
#X connect 56 0 52 0;
#X connect 57 0 87 0;
#X connect 58 0 47 1;
#X connect 61 0 58 0;
#X connect 62 0 67 0;
#X connect 63 0 58 0;
#X connect 64 0 89 0;
#X connect 65 0 62 1;
#X connect 66 0 65 0;
#X connect 67 0 64 0;
#X connect 67 1 63 0;
#X connect 68 0 153 0;
#X connect 69 0 135 0;
#X connect 69 1 68 1;
#X connect 70 0 74 0;
#X connect 71 0 70 0;
#X connect 72 0 73 0;
#X connect 73 0 71 0;
#X connect 74 0 75 1;
#X connect 75 0 47 0;
#X connect 76 0 75 0;
#X connect 77 0 34 0;
#X connect 78 0 80 0;
#X connect 78 0 82 1;
#X connect 79 0 78 0;
#X connect 80 0 79 0;
#X connect 82 0 121 0;
#X connect 83 0 85 0;
#X connect 84 0 86 0;
#X connect 85 0 84 0;
#X connect 85 1 50 0;
#X connect 87 0 84 1;
#X connect 88 0 83 0;
#X connect 91 0 96 0;
#X connect 91 0 105 0;
#X connect 92 0 97 0;
#X connect 92 0 98 0;
#X connect 93 0 91 0;
#X connect 94 0 92 0;
#X connect 98 0 94 0;
#X connect 99 0 19 0;
#X connect 100 0 20 0;
#X connect 101 0 41 0;
#X connect 104 0 42 0;
#X connect 105 0 93 0;
#X connect 106 0 108 0;
#X connect 106 0 109 0;
#X connect 107 0 106 0;
#X connect 108 0 107 0;
#X connect 111 0 117 0;
#X connect 112 0 113 0;
#X connect 113 0 57 0;
#X connect 114 0 115 0;
#X connect 115 0 112 1;
#X connect 116 0 114 0;
#X connect 116 1 114 1;
#X connect 117 0 148 0;
#X connect 118 0 113 1;
#X connect 118 0 116 0;
#X connect 119 0 114 0;
#X connect 120 0 122 1;
#X connect 121 0 122 0;
#X connect 122 0 123 0;
#X connect 123 0 124 0;
#X connect 123 1 125 0;
#X connect 124 0 128 0;
#X connect 125 0 126 0;
#X connect 127 0 27 0;
#X connect 129 0 131 1;
#X connect 130 0 131 0;
#X connect 131 0 132 0;
#X connect 132 0 133 0;
#X connect 132 1 134 0;
#X connect 133 0 146 0;
#X connect 134 0 140 0;
#X connect 135 0 136 0;
#X connect 136 0 68 0;
#X connect 136 1 138 0;
#X connect 137 0 130 0;
#X connect 139 0 36 0;
#X connect 142 0 48 0;
#X connect 143 0 18 0;
#X connect 146 0 141 0;
#X connect 146 1 147 0;
#X connect 148 0 84 0;
#X connect 148 1 112 0;
#X connect 148 2 149 0;
#X connect 151 0 11 0;
#X connect 153 0 62 0;
#X connect 153 1 61 0;
#X connect 153 2 66 0;
#X connect 153 3 72 0;
#X connect 153 4 150 0;
#X connect 153 5 152 0;
#X restore 391 55 pd sound;
#X obj 857 740 s iab_bud_rem;
#X text 472 30 last modified: 14-Mar-2020 4pm HHR;
#X obj 172 650 r iab_begin;
#X obj 261 650 r iab_end;
#X obj 215 724 tgl 30 0 empty empty empty 17 7 0 10 -262144 -1 -1 0
1;
#X obj 70 9 loadbang;
#X obj 70 34 bng 15 250 50 0 empty empty empty 17 7 0 10 -262144 -1
-1;
#X obj 70 63 s init;
#X obj 194 127 r init;
#X obj 617 236 r init;
#X msg 248 240 set \$1;
#X msg 245 274 set \$1;
#X msg 244 303 set \$1;
#X obj 125 684 bng 15 250 50 0 empty empty empty 17 7 0 10 -262144
-1 -1;
#X obj 303 687 bng 15 250 50 0 empty empty empty 17 7 0 10 -262144
-1 -1;
#X msg 173 685 0;
#X msg 253 686 1;
#N canvas 726 268 450 392 README 0;
#X text 57 169 required libraries to load on startup: cyclone;
#X text 61 66 written with pd 0.49.0;
#X text 61 29 ———— technical info ————;
#X text 54 235 ———— notes ————;
#X text 53 272 currently implements only IAB \, not yet CL;
#X text 55 113 required externals: cyclone (0.3) \, else \, osc \,
iemnet. these have to be added to path preferences;
#X restore 393 28 pd README;
#X obj 561 516 tgl 30 0 empty empty empty 17 7 0 10 -262144 -1 -1 0
1;
#X msg 519 550 0;
#X obj 472 550 r init;
#X text 603 521 mute sound;
#X msg 523 575 set \$1;
#X obj 583 577 s snd_mute;
#X text 452 55 sends: iab_act \, iab_begin \, iab_end;
#X text 256 731 active?;
#X text 158 618 ———— communicate status ————;
#N canvas 118 205 1246 735 open-sound-control 0;
#X obj 205 313 udpsend;
#X msg 161 146 set \$1;
#X floatatom 255 146 6 0 0 0 - - -;
#X msg 211 146 57120;
#X text 301 145 OSC UDP port of your client;
#X msg 108 228 connect;
#X obj 197 90 r init;
#X msg 255 211 127.0.0.1 \$1;
#X obj 222 213 t b;
#X obj 270 240 prepend connect;
#X obj 222 240 list;
#X msg 108 251 disconnect;
#X obj 205 341 tgl 15 0 empty empty empty 17 7 0 10 -262144 -1 -1 1
1;
#X msg 159 123 set \$1;
#X floatatom 257 124 6 0 0 0 - - -;
#X msg 209 123 1;
#X text 299 122 Identifier of this mock layer;
#X obj 251 98 s lay_id;
#X obj 716 24 r osc_out;
#X obj 679 205 zl len;
#X obj 677 283 print osc-out ERROR: empty message;
#X obj 682 139 list;
#X obj 659 348 r lay_id;
#X obj 617 407 zl join;
#X obj 650 313 gate 2;
#X obj 680 165 t l l;
#X obj 669 240 min 2;
#X obj 729 247 select 0;
#X msg 659 376 list i \$1;
#X obj 697 584 prepend sendtyped;
#X msg 760 68 /foo;
#X obj 797 322 zl slice 1;
#X msg 943 426 set \$1;
#X obj 898 465 prepend;
#X obj 941 397 r lay_id;
#X obj 899 349 zl slice 1;
#X text 870 317 cmd and args;
#X text 986 348 type-tags and args;
#X obj 807 521 zl join;
#X obj 852 379 sprintf i%s;
#X obj 819 479 zl join;
#X msg 761 101 /bar f 33.3;
#X obj 851 598 tgl 15 0 empty empty empty 17 7 0 10 -262144 -1 -1 1
1;
#X obj 820 632 spigot;
#X obj 821 671 print OSC_OUT;
#X text 878 595 debug print outgoing messages;
#X obj 732 647 bng 15 250 50 0 empty empty empty 17 7 0 10 -262144
-1 -1;
#X obj 695 611 t a a b;
#X obj 270 313 packOSC;
#X text 128 341 connected?;
#X connect 0 0 12 0;
#X connect 1 0 3 0;
#X connect 2 0 1 0;
#X connect 2 0 7 0;
#X connect 3 0 2 0;
#X connect 5 0 8 0;
#X connect 6 0 3 0;
#X connect 6 0 15 0;
#X connect 7 0 10 1;
#X connect 8 0 10 0;
#X connect 9 0 0 0;
#X connect 10 0 9 0;
#X connect 11 0 0 0;
#X connect 13 0 15 0;
#X connect 14 0 13 0;
#X connect 14 0 17 0;
#X connect 15 0 14 0;
#X connect 18 0 21 0;
#X connect 19 0 27 0;
#X connect 19 0 26 0;
#X connect 21 0 25 0;
#X connect 22 0 28 0;
#X connect 23 0 29 0;
#X connect 24 0 23 0;
#X connect 24 1 31 0;
#X connect 25 0 24 1;
#X connect 25 1 19 0;
#X connect 26 0 24 0;
#X connect 27 0 20 0;
#X connect 28 0 23 1;
#X connect 29 0 47 0;
#X connect 30 0 21 0;
#X connect 31 0 38 0;
#X connect 31 1 35 0;
#X connect 32 0 33 0;
#X connect 33 0 40 1;
#X connect 34 0 32 0;
#X connect 35 0 39 0;
#X connect 35 1 33 0;
#X connect 38 0 29 0;
#X connect 39 0 40 0;
#X connect 40 0 38 1;
#X connect 41 0 21 0;
#X connect 42 0 43 1;
#X connect 43 0 44 0;
#X connect 47 0 48 0;
#X connect 47 1 43 0;
#X connect 47 2 46 0;
#X connect 48 0 0 0;
#X restore 391 84 pd open-sound-control;
#X msg 22 679 \; osc_out /begin-iab, f 13;
#X msg 332 673 \; osc_out /end-iab;
#X connect 1 0 14 0;
#X connect 1 0 83 0;
#X connect 2 0 15 0;
#X connect 2 0 84 0;
#X connect 3 0 16 0;
#X connect 3 0 85 0;
#X connect 5 0 22 0;
#X connect 6 0 24 0;
#X connect 7 0 1 0;
#X connect 10 0 2 0;
#X connect 11 0 23 0;
#X connect 11 0 28 0;
#X connect 12 0 21 0;
#X connect 13 0 3 0;
#X connect 17 0 18 0;
#X connect 18 0 32 0;
#X connect 19 0 17 0;
#X connect 20 0 19 0;
#X connect 21 0 11 0;
#X connect 22 0 6 0;
#X connect 23 0 25 0;
#X connect 24 0 23 0;
#X connect 24 1 23 1;
#X connect 25 0 47 0;
#X connect 27 0 33 0;
#X connect 27 3 45 0;
#X connect 29 0 30 0;
#X connect 30 0 27 4;
#X connect 30 0 35 1;
#X connect 31 0 27 0;
#X connect 33 0 35 0;
#X connect 35 0 34 0;
#X connect 35 0 36 0;
#X connect 37 0 40 0;
#X connect 37 3 44 0;
#X connect 38 0 37 4;
#X connect 38 0 41 1;
#X connect 38 0 50 1;
#X connect 39 0 37 0;
#X connect 40 0 41 0;
#X connect 41 0 42 0;
#X connect 43 0 38 0;
#X connect 44 0 52 0;
#X connect 45 0 61 0;
#X connect 46 0 65 0;
#X connect 48 0 51 1;
#X connect 49 0 53 0;
#X connect 50 0 64 0;
#X connect 51 0 50 0;
#X connect 52 0 48 0;
#X connect 52 1 51 0;
#X connect 53 0 54 0;
#X connect 54 0 48 0;
#X connect 55 0 59 0;
#X connect 55 0 56 1;
#X connect 56 0 58 0;
#X connect 58 0 57 0;
#X connect 59 0 60 0;
#X connect 60 0 56 0;
#X connect 60 0 73 0;
#X connect 62 0 63 0;
#X connect 63 0 46 0;
#X connect 64 0 46 0;
#X connect 64 1 46 1;
#X connect 65 0 59 0;
#X connect 65 1 59 1;
#X connect 75 0 86 0;
#X connect 75 0 88 0;
#X connect 76 0 87 0;
#X connect 76 0 89 0;
#X connect 78 0 79 0;
#X connect 79 0 80 0;
#X connect 81 0 7 0;
#X connect 81 0 10 0;
#X connect 81 0 13 0;
#X connect 82 0 20 0;
#X connect 83 0 7 0;
#X connect 84 0 10 0;
#X connect 85 0 13 0;
#X connect 86 0 101 0;
#X connect 87 0 102 0;
#X connect 88 0 77 0;
#X connect 89 0 77 0;
#X connect 91 0 95 0;
#X connect 91 0 96 0;
#X connect 92 0 91 0;
#X connect 93 0 92 0;
#X connect 95 0 92 0;
